<svg width="24" height="24" viewBox="0 0 24 24" fill="none" xmlns="http://www.w3.org/2000/svg">
<path d="M17.6667 6.26087C17.6667 9.10814 15.1897 11.5217 12 11.5217C8.8103 11.5217 6.33333 9.10814 6.33333 6.26087C6.33333 3.4136 8.8103 1 12 1C15.1897 1 17.6667 3.4136 17.6667 6.26087ZM12 15.6087C14.6482 15.6087 16.9968 16.1148 18.646 16.8892C20.3744 17.7008 21 18.6237 21 19.3043C21 19.9841 20.9932 20.4582 20.8803 20.8641C20.7839 21.2109 20.6063 21.5132 20.1878 21.7977C19.7311 22.1081 18.9532 22.4188 17.6146 22.645C16.2851 22.8696 14.4715 23 12 23C9.52846 23 7.71492 22.8696 6.38536 22.645C5.04685 22.4188 4.26885 22.1081 3.81219 21.7977C3.39369 21.5132 3.21613 21.2109 3.11968 20.8641C3.00676 20.4582 3 19.9841 3 19.3043C3 18.6237 3.62565 17.7008 5.35397 16.8892C7.00316 16.1148 9.35179 15.6087 12 15.6087Z" stroke="#31213B" stroke-width="2"/>
</svg>
