<svg width="174" height="147" viewBox="0 0 174 147" fill="none" xmlns="http://www.w3.org/2000/svg">
<g clip-path="url(#clip0_66_419)">
<g clip-path="url(#clip1_66_419)">
<path d="M51.3334 89.1667H73.625C78.0834 89.1667 82.5417 71.3333 87 71.3333C91.4584 71.3333 95.9167 89.1667 100.375 89.1667H122.667C123.849 89.1667 124.983 88.6969 125.819 87.8608C126.655 87.0247 127.125 85.8908 127.125 84.7083C127.125 75.7917 112.065 62.8313 109.292 57.9583C113.75 57.9583 127.125 55.7292 127.125 49.0417C127.125 40.125 109.292 33.4375 100.375 31.2083C100.375 24.5208 98.1459 13.375 87 13.375C75.8542 13.375 73.625 24.5208 73.625 31.2083" stroke="#FDF7E5" stroke-width="8" stroke-linecap="round" stroke-linejoin="round"/>
</g>
<path d="M33.56 118.56V136.84L34.64 141H25.24L26.32 136.84L26.52 120.92L21.2 141H13.6L8.52 120.72L8.76 136.84L9.84 141H1.28L2.36 136.84V118.56L1.28 114.44H14.68L14.84 117.92L18.12 131.2L21.44 117.92L21.6 114.44H34.64L33.56 118.56ZM58.9375 135.04L63.0975 133.88L62.0175 141H39.2175L40.2975 136.88V118.56L39.2175 114.44H61.4975L62.5775 121.56L58.4175 120.4H48.9775V124.72H55.4575L58.0175 124.08V131.12L55.4575 130.48H48.9775V135.04H58.9375ZM86.8359 135.04L90.9959 133.88L89.9159 141H67.1159L68.1959 136.88V118.56L67.1159 114.44H89.3959L90.4759 121.56L86.3159 120.4H76.8759V124.72H83.3559L85.9159 124.08V131.12L83.3559 130.48H76.8759V135.04H86.8359ZM95.0144 141L96.0944 136.84V118.56L95.0144 114.44H109.614C116.974 114.44 119.974 117.44 119.974 123.8C119.974 130.12 116.694 133 109.254 133H104.854V136.84L106.694 141H95.0144ZM104.694 127.48H108.134C110.614 127.48 111.454 126.72 111.454 123.92C111.454 121.04 110.654 120.12 108.214 120.12H104.694V127.48ZM141.487 134.84L145.647 133.68L144.567 141H124.007L125.087 136.88V118.56L124.007 114.44H134.927L133.847 118.56V134.84H141.487ZM168.852 135.04L173.012 133.88L171.932 141H149.132L150.212 136.88V118.56L149.132 114.44H171.412L172.492 121.56L168.332 120.4H158.892V124.72H165.372L167.932 124.08V131.12L165.372 130.48H158.892V135.04H168.852Z" fill="#FDF7E5"/>
</g>
<defs>
<clipPath id="clip0_66_419">
<rect width="174" height="147" fill="white"/>
</clipPath>
<clipPath id="clip1_66_419">
<rect width="107" height="107" fill="white" transform="translate(33.5)"/>
</clipPath>
</defs>
</svg>
